<svg  xmlns="http://www.w3.org/2000/svg">
    <defs>
        <symbol id="twitter" viewBox="0 0 25 20" fill="currentColor" xmlns="http://www.w3.org/2000/svg">
            <path d="M24.6154 2.36769C23.7 2.76923 22.7246 3.03538 21.7077 3.16462C22.7538 2.54 23.5523 1.55846 23.9277 0.375385C22.9523 0.956923 21.8754 1.36769 20.7277 1.59692C19.8015 0.610769 18.4815 0 17.0415 0C14.2477 0 11.9985 2.26769 11.9985 5.04769C11.9985 5.44769 12.0323 5.83231 12.1154 6.19846C7.92 5.99385 4.20769 3.98308 1.71385 0.92C1.27846 1.67538 1.02308 2.54 1.02308 3.47077C1.02308 5.21846 1.92308 6.76769 3.26462 7.66462C2.45385 7.64923 1.65846 7.41385 0.984615 7.04308C0.984615 7.05846 0.984615 7.07846 0.984615 7.09846C0.984615 9.55077 2.73385 11.5877 5.02769 12.0569C4.61692 12.1692 4.16923 12.2231 3.70462 12.2231C3.38154 12.2231 3.05538 12.2046 2.74923 12.1369C3.40308 14.1354 5.25846 15.6046 7.46462 15.6523C5.74769 16.9954 3.56769 17.8046 1.20769 17.8046C0.793846 17.8046 0.396923 17.7862 0 17.7354C2.23538 19.1769 4.88462 20 7.74154 20C17.0277 20 22.1046 12.3077 22.1046 5.64C22.1046 5.41692 22.0969 5.20154 22.0862 4.98769C23.0877 4.27692 23.9292 3.38923 24.6154 2.36769Z"/>
        </symbol>
        
        <symbol id="facebook" viewBox="0 0 20 20" fill="currentColor" xmlns="http://www.w3.org/2000/svg">
            <path d="M20 3.33356C20 1.582 18.4187 0 16.6667 0H3.33333C1.58133 0 0 1.582 0 3.33356V16.6664C0 18.418 1.58133 20 3.33356 20H10V12.4444H7.55556V9.11111H10V7.81244C10 5.57267 11.6818 3.55556 13.75 3.55556H16.4444V6.88889H13.75C13.4551 6.88889 13.1111 7.24689 13.1111 7.78311V9.11111H16.4444V12.4444H13.1111V20H16.6667C18.4187 20 20 18.418 20 16.6664V3.33356Z" />
        </symbol>
        
        <symbol id="medium"  viewBox="0 0 20 20" fill="currentColor" xmlns="http://www.w3.org/2000/svg">
            <path d="M19.5174 18.4519L13.3577 15.4907L13.3113 2.06738C13.3102 1.75402 13.6373 1.54754 13.9198 1.68333L19.7595 4.49147C19.9065 4.56216 20 4.71092 20 4.87405V18.1484C19.9999 18.3965 19.7409 18.5594 19.5174 18.4519Z" />
            <path d="M13.3577 15.4907L6.69104 12.2853L13.1091 1.71859C13.2225 1.53193 13.459 1.46175 13.6559 1.55638L19.5772 4.40381C19.8035 4.51266 19.8864 4.79314 19.7556 5.0075L13.3577 15.4907Z"/>
            <path d="M13.3577 15.4907L6.69102 12.2853L0.580396 2.33472C0.410147 2.0575 0.706381 1.72925 0.999565 1.87022L6.69102 4.60707L13.3577 15.4907Z"/>
            <path d="M6.20845 18.4519L0.190781 15.5582C0.0741473 15.5021 0 15.3841 0 15.2547V1.90826C0 1.66808 0.250901 1.51028 0.467397 1.61441L6.69104 4.60719V18.1485C6.69104 18.3965 6.43196 18.5594 6.20845 18.4519Z"/>
        </symbol>

        <symbol id="stories"  viewBox="0 0 30 30" fill="none" xmlns="http://www.w3.org/2000/svg">
            <path d="M3.49133 3.49813V29.485C3.49133 29.7611 3.71509 29.9848 3.99114 29.9848H22.9816C23.2575 29.9848 23.4812 29.7611 23.4812 29.485V8.49576C23.4812 8.48464 23.4759 8.47517 23.4748 8.46426C23.4724 8.42042 23.4637 8.37719 23.4493 8.33581C23.4438 8.31976 23.4398 8.30432 23.4328 8.28867C23.4086 8.23433 23.3748 8.18472 23.3328 8.14231L18.3354 3.14489C18.293 3.1027 18.2432 3.06894 18.1884 3.04485C18.1734 3.03847 18.1581 3.03312 18.1425 3.02838C18.1007 3.01397 18.0573 3.00533 18.013 3.00245C18.0046 3.00389 17.9947 2.99854 17.9842 2.99854H3.99114C3.71509 2.99854 3.49133 3.22209 3.49133 3.49813ZM21.7751 7.99595H18.4838V4.70462L21.7751 7.99595ZM4.49073 3.99794H17.4844V8.49576C17.4844 8.7716 17.7082 8.99536 17.984 8.99536H22.4818V28.9854H4.49073V3.99794Z" fill="#E84933"/>
            <path d="M24.4808 25.9869V26.9863H25.98C26.2561 26.9863 26.4798 26.7628 26.4798 26.4867V0.499804C26.4798 0.223759 26.2561 0 25.98 0H6.98955C6.7135 0 6.48975 0.223759 6.48975 0.499804V1.99901H7.48935V0.999401H25.4802V25.9869H24.4808Z" fill="#E84933"/>
            <path d="M7.48938 9.99512H19.4832V10.9945H7.48938V9.99512Z" fill="#E84933"/>
            <path d="M7.48938 6.99634H11.4874V7.99594H7.48938V6.99634Z" fill="#E84933"/>
            <path d="M7.48938 12.9934H15.4854V13.993H7.48938V12.9934Z" fill="#E84933"/>
            <path d="M16.4848 12.9934H19.4832V13.993H16.4848V12.9934Z" fill="#E84933"/>
            <path d="M7.48938 15.9919H19.4832V16.9916H7.48938V15.9919Z" fill="#E84933"/>
            <path d="M7.48938 21.989H19.4832V22.9886H7.48938V21.989Z" fill="#E84933"/>
            <path d="M11.987 18.9905H19.4832V19.9899H11.987V18.9905Z" fill="#E84933"/>
            <path d="M7.48938 18.9905H10.9876V19.9899H7.48938V18.9905Z" fill="#E84933"/>
            <path d="M7.48938 24.9875H9.48839V25.9869H7.48938V24.9875Z" fill="#E84933"/>
            <path d="M10.4877 24.9875H19.4832V25.9869H10.4877V24.9875Z" fill="#E84933"/>
        </symbol>

        <symbol id="about"  viewBox="0 0 26 30" fill="none" xmlns="http://www.w3.org/2000/svg">
            <path d="M12.8913 16.1648C12.9224 16.1648 12.9534 16.1648 12.9907 16.1648C13.0031 16.1648 13.0156 16.1648 13.028 16.1648C13.0466 16.1648 13.0715 16.1648 13.0901 16.1648C14.9104 16.1338 16.3827 15.4939 17.4699 14.27C19.8617 11.5738 19.4641 6.95175 19.4206 6.51066C19.2653 3.19942 17.6998 1.61524 16.4076 0.875958C15.4446 0.323048 14.3202 0.0248499 13.0653 0H13.0218C13.0156 0 13.0031 0 12.9969 0H12.9596C12.2701 0 10.9157 0.111824 9.61734 0.851108C8.31272 1.59039 6.72233 3.17457 6.56702 6.51066C6.52353 6.95175 6.12593 11.5738 8.51773 14.27C9.5987 15.4939 11.0711 16.1338 12.8913 16.1648ZM8.22575 6.66598C8.22575 6.64734 8.23196 6.6287 8.23196 6.61628C8.43697 2.16194 11.5991 1.68358 12.9534 1.68358H12.9783C12.9907 1.68358 13.0093 1.68358 13.028 1.68358C14.7054 1.72085 17.5569 2.40422 17.7495 6.61628C17.7495 6.63491 17.7495 6.65355 17.7557 6.66598C17.7619 6.70946 18.1968 10.9339 16.2212 13.158C15.4384 14.0402 14.3947 14.475 13.0218 14.4875C13.0093 14.4875 13.0031 14.4875 12.9907 14.4875C12.9783 14.4875 12.9721 14.4875 12.9596 14.4875C11.5929 14.475 10.543 14.0402 9.76644 13.158C7.79708 10.9464 8.21953 6.70325 8.22575 6.66598Z" fill="#8BE8C4"/>
            <path d="M25.7573 23.831C25.7573 23.8248 25.7573 23.8186 25.7573 23.8124C25.7573 23.7627 25.7511 23.713 25.7511 23.6571C25.7138 22.427 25.6331 19.5506 22.9369 18.6312C22.9182 18.625 22.8934 18.6188 22.8747 18.6126C20.0729 17.8981 17.7432 16.2829 17.7184 16.2643C17.3394 15.9971 16.8176 16.0903 16.5504 16.4693C16.2833 16.8482 16.3765 17.3701 16.7555 17.6372C16.8611 17.7118 19.3336 19.4326 22.4274 20.2278C23.8749 20.7434 24.0365 22.2903 24.08 23.7068C24.08 23.7627 24.08 23.8124 24.0862 23.8621C24.0924 24.4212 24.0551 25.2848 23.9557 25.7818C22.9493 26.3533 19.0044 28.3289 13.0031 28.3289C7.02673 28.3289 3.05697 26.3471 2.04433 25.7755C1.94493 25.2785 1.90145 24.415 1.91387 23.8559C1.91387 23.8062 1.92008 23.7565 1.92008 23.7006C1.96357 22.2841 2.1251 20.7372 3.5726 20.2216C6.66641 19.4264 9.13897 17.6993 9.24458 17.631C9.62354 17.3639 9.71673 16.842 9.44959 16.4631C9.18246 16.0841 8.66061 15.9909 8.28165 16.258C8.2568 16.2767 5.93955 17.8919 3.1253 18.6064C3.10045 18.6126 3.08182 18.6188 3.06318 18.625C0.366968 19.5506 0.286206 22.427 0.248931 23.6509C0.248931 23.7068 0.248931 23.7565 0.242719 23.8062C0.242719 23.8124 0.242719 23.8186 0.242719 23.8248C0.236506 24.1479 0.230294 25.8066 0.559555 26.6391C0.621679 26.8006 0.733504 26.9373 0.882603 27.0305C1.06898 27.1547 5.53574 30 13.0093 30C20.4829 30 24.9497 27.1485 25.1361 27.0305C25.279 26.9373 25.397 26.8006 25.4591 26.6391C25.7697 25.8128 25.7635 24.1541 25.7573 23.831Z" fill="#8BE8C4"/>
        </symbol>

        <symbol id="message"  viewBox="0 0 30 20" fill="none" xmlns="http://www.w3.org/2000/svg">
            <path d="M29.4023 0.300049H0.597597C0.267597 0.300049 0 0.567587 0 0.897645V16.6434C0 18.3288 1.37109 19.6999 3.05654 19.6999H26.9435C28.6289 19.6999 30 18.3288 30 16.6434V0.897645C29.9999 0.567587 29.7323 0.300049 29.4023 0.300049ZM28.8047 16.6433C28.8047 17.6697 27.9698 18.5046 26.9435 18.5046H3.05654C2.03021 18.5046 1.19525 17.6696 1.19525 16.6433V2.20147L14.6214 13.1927C14.7316 13.2828 14.8657 13.3279 15 13.3279C15.134 13.3279 15.268 13.2829 15.378 13.1931L25.767 4.70705C26.0226 4.49822 26.0606 4.12182 25.8518 3.86617C25.6429 3.61053 25.2666 3.57256 25.0109 3.78145L15.0004 11.9583L2.21947 1.49524H28.8047V16.6433Z" fill="#47BAFF"/>
        </symbol>
    </defs>    
</svg>
